<mxfile host="Electron" agent="Mozilla/5.0 (Windows NT 10.0; Win64; x64) AppleWebKit/537.36 (KHTML, like Gecko) draw.io/26.0.7 Chrome/128.0.6613.186 Electron/32.2.5 Safari/537.36" version="26.0.7">
  <diagram name="Seite-1" id="nAPD7G0xi4wCLeAfMwZV">
    <mxGraphModel dx="1050" dy="781" grid="1" gridSize="10" guides="1" tooltips="1" connect="1" arrows="1" fold="1" page="1" pageScale="1" pageWidth="827" pageHeight="1169" math="0" shadow="0">
      <root>
        <mxCell id="0" />
        <mxCell id="1" parent="0" />
        <mxCell id="FAVD_G6lO2Hv-YEoKQG3-1" value="" style="rounded=1;whiteSpace=wrap;html=1;arcSize=12;" parent="1" vertex="1">
          <mxGeometry x="161" y="410" width="400" height="335" as="geometry" />
        </mxCell>
        <mxCell id="FAVD_G6lO2Hv-YEoKQG3-2" value="&lt;b&gt;Passage Store&lt;/b&gt;" style="text;html=1;align=center;verticalAlign=middle;resizable=0;points=[];autosize=1;strokeColor=none;fillColor=none;" parent="1" vertex="1">
          <mxGeometry x="306" y="410" width="110" height="30" as="geometry" />
        </mxCell>
        <mxCell id="FAVD_G6lO2Hv-YEoKQG3-9" value="&lt;b&gt;Segmentation with spaCy&lt;/b&gt;" style="text;html=1;align=center;verticalAlign=middle;resizable=0;points=[];autosize=1;strokeColor=none;fillColor=none;" parent="1" vertex="1">
          <mxGeometry x="360" y="495" width="170" height="30" as="geometry" />
        </mxCell>
        <mxCell id="FAVD_G6lO2Hv-YEoKQG3-15" value="" style="rounded=1;whiteSpace=wrap;html=1;arcSize=12;" parent="1" vertex="1">
          <mxGeometry x="680" y="20" width="400" height="335" as="geometry" />
        </mxCell>
        <mxCell id="FAVD_G6lO2Hv-YEoKQG3-16" value="&lt;b&gt;Document Store&lt;/b&gt;" style="text;html=1;align=center;verticalAlign=middle;resizable=0;points=[];autosize=1;strokeColor=none;fillColor=none;" parent="1" vertex="1">
          <mxGeometry x="820" y="20" width="120" height="30" as="geometry" />
        </mxCell>
        <mxCell id="FAVD_G6lO2Hv-YEoKQG3-17" style="edgeStyle=orthogonalEdgeStyle;rounded=0;orthogonalLoop=1;jettySize=auto;html=1;exitX=0;exitY=0;exitDx=50;exitDy=42;exitPerimeter=0;entryX=0;entryY=0.5;entryDx=0;entryDy=0;" parent="1" source="FAVD_G6lO2Hv-YEoKQG3-21" target="FAVD_G6lO2Hv-YEoKQG3-22" edge="1">
          <mxGeometry relative="1" as="geometry" />
        </mxCell>
        <mxCell id="FAVD_G6lO2Hv-YEoKQG3-18" value="&lt;b&gt;&lt;font style=&quot;font-size: 12px;&quot;&gt;Document&lt;/font&gt;&lt;/b&gt;&lt;div&gt;&lt;b&gt;&lt;font style=&quot;font-size: 12px;&quot;&gt;Selection&lt;/font&gt;&lt;/b&gt;&lt;/div&gt;" style="edgeLabel;html=1;align=center;verticalAlign=middle;resizable=0;points=[];" parent="FAVD_G6lO2Hv-YEoKQG3-17" vertex="1" connectable="0">
          <mxGeometry x="-0.0425" y="-1" relative="1" as="geometry">
            <mxPoint as="offset" />
          </mxGeometry>
        </mxCell>
        <mxCell id="FAVD_G6lO2Hv-YEoKQG3-19" style="edgeStyle=orthogonalEdgeStyle;rounded=0;orthogonalLoop=1;jettySize=auto;html=1;exitX=0.5;exitY=1;exitDx=0;exitDy=0;exitPerimeter=0;dashed=1;dashPattern=1 4;endArrow=none;startFill=0;" parent="1" source="FAVD_G6lO2Hv-YEoKQG3-20" target="FAVD_G6lO2Hv-YEoKQG3-21" edge="1">
          <mxGeometry relative="1" as="geometry" />
        </mxCell>
        <mxCell id="FAVD_G6lO2Hv-YEoKQG3-20" value="&lt;b&gt;&lt;font style=&quot;font-size: 9px;&quot;&gt;Document&lt;/font&gt;&lt;/b&gt;&lt;div&gt;&lt;font style=&quot;font-size: 9px;&quot;&gt;doc_id&lt;/font&gt;&lt;/div&gt;&lt;div&gt;&lt;font style=&quot;font-size: 9px;&quot;&gt;text&lt;/font&gt;&lt;/div&gt;" style="shape=note;whiteSpace=wrap;html=1;backgroundOutline=1;darkOpacity=0.05;size=14;" parent="1" vertex="1">
          <mxGeometry x="694" y="50" width="50" height="70" as="geometry" />
        </mxCell>
        <mxCell id="FAVD_G6lO2Hv-YEoKQG3-21" value="&lt;b&gt;&lt;font style=&quot;font-size: 9px;&quot;&gt;Document&lt;/font&gt;&lt;/b&gt;&lt;div&gt;&lt;font style=&quot;font-size: 9px;&quot;&gt;doc_id&lt;/font&gt;&lt;/div&gt;&lt;div&gt;&lt;font style=&quot;font-size: 9px;&quot;&gt;text&lt;/font&gt;&lt;/div&gt;" style="shape=note;whiteSpace=wrap;html=1;backgroundOutline=1;darkOpacity=0.05;size=14;" parent="1" vertex="1">
          <mxGeometry x="694" y="160" width="50" height="70" as="geometry" />
        </mxCell>
        <mxCell id="FAVD_G6lO2Hv-YEoKQG3-22" value="" style="rounded=1;whiteSpace=wrap;html=1;" parent="1" vertex="1">
          <mxGeometry x="864" y="105" width="200" height="200" as="geometry" />
        </mxCell>
        <mxCell id="FAVD_G6lO2Hv-YEoKQG3-23" value="&lt;b&gt;Segmentation with spaCy&lt;/b&gt;" style="text;html=1;align=center;verticalAlign=middle;resizable=0;points=[];autosize=1;strokeColor=none;fillColor=none;" parent="1" vertex="1">
          <mxGeometry x="879" y="105" width="170" height="30" as="geometry" />
        </mxCell>
        <mxCell id="FAVD_G6lO2Hv-YEoKQG3-24" value="&lt;b&gt;&lt;font style=&quot;font-size: 9px;&quot;&gt;Document&lt;/font&gt;&lt;/b&gt;&lt;div&gt;&lt;font style=&quot;font-size: 9px;&quot;&gt;doc_id&lt;/font&gt;&lt;/div&gt;&lt;div&gt;&lt;font style=&quot;font-size: 9px;&quot;&gt;text&lt;/font&gt;&lt;/div&gt;" style="shape=note;whiteSpace=wrap;html=1;backgroundOutline=1;darkOpacity=0.05;size=14;" parent="1" vertex="1">
          <mxGeometry x="694" y="270" width="50" height="70" as="geometry" />
        </mxCell>
        <mxCell id="FAVD_G6lO2Hv-YEoKQG3-25" value="&lt;font style=&quot;font-size: 9px;&quot;&gt;&lt;b&gt;Passage&lt;/b&gt;&lt;/font&gt;&lt;div&gt;&lt;font style=&quot;font-size: 9px;&quot;&gt;passage_id&lt;/font&gt;&lt;/div&gt;&lt;div&gt;&lt;font style=&quot;font-size: 9px;&quot;&gt;text&lt;/font&gt;&lt;/div&gt;" style="shape=document;whiteSpace=wrap;html=1;boundedLbl=1;" parent="1" vertex="1">
          <mxGeometry x="914" y="140" width="100" height="60" as="geometry" />
        </mxCell>
        <mxCell id="FAVD_G6lO2Hv-YEoKQG3-26" value="" style="shape=tape;whiteSpace=wrap;html=1;" parent="1" vertex="1">
          <mxGeometry x="914" y="190" width="100" height="60" as="geometry" />
        </mxCell>
        <mxCell id="FAVD_G6lO2Hv-YEoKQG3-27" value="&lt;font style=&quot;font-size: 9px;&quot;&gt;&lt;b style=&quot;&quot;&gt;Passage&lt;/b&gt;&lt;/font&gt;&lt;div&gt;&lt;font style=&quot;font-size: 9px;&quot;&gt;passage_id&lt;/font&gt;&lt;/div&gt;&lt;div&gt;&lt;font style=&quot;font-size: 9px;&quot;&gt;text&lt;/font&gt;&lt;/div&gt;" style="shape=document;whiteSpace=wrap;html=1;boundedLbl=1;direction=west;" parent="1" vertex="1">
          <mxGeometry x="914" y="240" width="100" height="60" as="geometry" />
        </mxCell>
        <mxCell id="FAVD_G6lO2Hv-YEoKQG3-28" style="edgeStyle=orthogonalEdgeStyle;rounded=0;orthogonalLoop=1;jettySize=auto;html=1;exitX=0.5;exitY=1;exitDx=0;exitDy=0;exitPerimeter=0;entryX=0.5;entryY=0;entryDx=0;entryDy=0;entryPerimeter=0;dashed=1;dashPattern=1 4;endArrow=none;startFill=0;" parent="1" source="FAVD_G6lO2Hv-YEoKQG3-21" target="FAVD_G6lO2Hv-YEoKQG3-24" edge="1">
          <mxGeometry relative="1" as="geometry" />
        </mxCell>
        <mxCell id="FAVD_G6lO2Hv-YEoKQG3-30" value="" style="group" parent="1" vertex="1" connectable="0">
          <mxGeometry x="180" y="440" width="60" height="170" as="geometry" />
        </mxCell>
        <mxCell id="FAVD_G6lO2Hv-YEoKQG3-31" value="" style="group" parent="FAVD_G6lO2Hv-YEoKQG3-30" vertex="1" connectable="0">
          <mxGeometry width="50" height="80" as="geometry" />
        </mxCell>
        <mxCell id="FAVD_G6lO2Hv-YEoKQG3-11" value="&lt;font style=&quot;font-size: 9px;&quot;&gt;Passage&lt;/font&gt;" style="shape=document;whiteSpace=wrap;html=1;boundedLbl=1;" parent="FAVD_G6lO2Hv-YEoKQG3-31" vertex="1">
          <mxGeometry width="50" height="30" as="geometry" />
        </mxCell>
        <mxCell id="FAVD_G6lO2Hv-YEoKQG3-12" value="" style="shape=tape;whiteSpace=wrap;html=1;" parent="FAVD_G6lO2Hv-YEoKQG3-31" vertex="1">
          <mxGeometry y="25" width="50" height="30" as="geometry" />
        </mxCell>
        <mxCell id="FAVD_G6lO2Hv-YEoKQG3-13" value="&lt;font style=&quot;font-size: 9px;&quot;&gt;Passage&lt;/font&gt;" style="shape=document;whiteSpace=wrap;html=1;boundedLbl=1;direction=west;" parent="FAVD_G6lO2Hv-YEoKQG3-31" vertex="1">
          <mxGeometry y="50" width="50" height="30" as="geometry" />
        </mxCell>
        <mxCell id="FAVD_G6lO2Hv-YEoKQG3-32" value="" style="group" parent="1" vertex="1" connectable="0">
          <mxGeometry x="180" y="560" width="60" height="185" as="geometry" />
        </mxCell>
        <mxCell id="FAVD_G6lO2Hv-YEoKQG3-37" value="" style="group" parent="FAVD_G6lO2Hv-YEoKQG3-32" vertex="1" connectable="0">
          <mxGeometry y="85" width="60" height="100" as="geometry" />
        </mxCell>
        <mxCell id="FAVD_G6lO2Hv-YEoKQG3-38" value="" style="group" parent="FAVD_G6lO2Hv-YEoKQG3-37" vertex="1" connectable="0">
          <mxGeometry width="50" height="80" as="geometry" />
        </mxCell>
        <mxCell id="FAVD_G6lO2Hv-YEoKQG3-39" value="" style="shape=document;whiteSpace=wrap;html=1;boundedLbl=1;" parent="FAVD_G6lO2Hv-YEoKQG3-38" vertex="1">
          <mxGeometry width="50" height="30" as="geometry" />
        </mxCell>
        <mxCell id="FAVD_G6lO2Hv-YEoKQG3-40" value="" style="shape=tape;whiteSpace=wrap;html=1;" parent="FAVD_G6lO2Hv-YEoKQG3-38" vertex="1">
          <mxGeometry y="25" width="50" height="30" as="geometry" />
        </mxCell>
        <mxCell id="FAVD_G6lO2Hv-YEoKQG3-41" value="" style="shape=document;whiteSpace=wrap;html=1;boundedLbl=1;direction=west;" parent="FAVD_G6lO2Hv-YEoKQG3-38" vertex="1">
          <mxGeometry y="50" width="50" height="30" as="geometry" />
        </mxCell>
        <mxCell id="FAVD_G6lO2Hv-YEoKQG3-33" value="" style="group" parent="FAVD_G6lO2Hv-YEoKQG3-32" vertex="1" connectable="0">
          <mxGeometry y="-20" width="50" height="80" as="geometry" />
        </mxCell>
        <mxCell id="FAVD_G6lO2Hv-YEoKQG3-34" value="" style="shape=document;whiteSpace=wrap;html=1;boundedLbl=1;" parent="FAVD_G6lO2Hv-YEoKQG3-33" vertex="1">
          <mxGeometry width="50" height="30" as="geometry" />
        </mxCell>
        <mxCell id="FAVD_G6lO2Hv-YEoKQG3-35" value="" style="shape=tape;whiteSpace=wrap;html=1;" parent="FAVD_G6lO2Hv-YEoKQG3-33" vertex="1">
          <mxGeometry y="25" width="50" height="30" as="geometry" />
        </mxCell>
        <mxCell id="FAVD_G6lO2Hv-YEoKQG3-36" value="" style="shape=document;whiteSpace=wrap;html=1;boundedLbl=1;direction=west;" parent="FAVD_G6lO2Hv-YEoKQG3-33" vertex="1">
          <mxGeometry y="50" width="50" height="30" as="geometry" />
        </mxCell>
      </root>
    </mxGraphModel>
  </diagram>
</mxfile>
